<?xml version="1.0" standalone="no"?>
<svg xmlns="http://www.w3.org/2000/svg" viewBox="0 0 132.673 24.167" width="132.673" height="24.167"><g fill="white" color="white" transform="translate(0, 0) scale(0.6041667)"><svg width="48.0" height="40.0" x="0.0" y="0.0" viewBox="0 0 48 40"><path fill="white" fill-rule="evenodd" d="M41.576 0L12.872 28.703v-2.95L38.625 0h-4.1l-10.9 10.898L12.725 0h-4.1l12.949 12.95-1.476 1.474L5.675 0h-4.1l16.474 16.475-1.475 1.475L0 1.376V40h2.9V8.378l2.087 2.086V40h2.9V13.364l2.086 2.087V40h2.9v-.146l10.752-10.752L34.525 40h2.951V15.253l2.086-2.087V40h2.9V10.266l2.087-2.086V40h2.898V5.434h-.153l.153-.154V1.178L12.872 35.754v-2.95L45.675 0h-4.1zm-8.849 20l1.848-1.848v3.697L32.727 20zm-19.855-1.65L14.522 20l-1.65 1.65V18.35zm16.329 5.176l1.476-1.474 3.898 3.899v2.952l-5.374-5.377zm-3.526 3.526l1.475-1.476 7.425 7.426v2.95l-8.9-8.9z"></path></svg></g><line x1="41" y1="1" x2="41" y2="23.167" stroke="white" stroke-linecap="round"></line><path fill="white" fill-rule="nonzero" d="M2.21 19.44L0 19.44L0.36 0L3.02 0L6.46 15.77L9.91 0L12.55 0L12.91 19.44L10.73 19.44L10.51 5.33L7.22 19.44L5.69 19.44L2.42 5.33L2.21 19.44ZM18.17 19.63L18.17 19.63Q17.35 19.63 16.73 19.16Q16.10 18.70 15.74 17.96Q15.38 17.23 15.38 16.42L15.38 16.42Q15.38 15.12 15.82 14.23Q16.25 13.34 17.00 12.73Q17.76 12.12 18.76 11.66Q19.75 11.21 20.86 10.78L20.86 10.78L20.86 9.79Q20.86 8.95 20.76 8.40Q20.66 7.85 20.36 7.57Q20.06 7.30 19.46 7.30L19.46 7.30Q18.94 7.30 18.61 7.54Q18.29 7.78 18.14 8.22Q18 8.66 18 9.26L18 9.26L18 9.96L15.46 9.86Q15.50 7.56 16.51 6.47Q17.52 5.38 19.63 5.38L19.63 5.38Q21.70 5.38 22.56 6.50Q23.42 7.63 23.42 9.77L23.42 9.77L23.42 16.10Q23.42 16.75 23.46 17.35Q23.50 17.95 23.56 18.47Q23.62 18.98 23.66 19.44L23.66 19.44L21.31 19.44Q21.24 19.06 21.13 18.47Q21.02 17.88 20.98 17.40L20.98 17.40Q20.74 18.22 20.05 18.92Q19.37 19.63 18.17 19.63ZM19.18 17.42L19.18 17.42Q19.56 17.42 19.90 17.21Q20.23 16.99 20.50 16.72Q20.76 16.44 20.86 16.27L20.86 16.27L20.86 12.34Q20.26 12.67 19.73 13.01Q19.20 13.34 18.80 13.72Q18.41 14.09 18.18 14.56Q17.95 15.02 17.95 15.62L17.95 15.62Q17.95 16.46 18.26 16.94Q18.58 17.42 19.18 17.42ZM29.11 19.63L29.11 19.63Q27.41 19.63 26.38 18.56Q25.34 17.50 25.20 15.74L25.20 15.74L27.34 15.10Q27.53 16.42 27.98 17.08Q28.44 17.74 29.33 17.74L29.33 17.74Q30.02 17.74 30.38 17.34Q30.74 16.94 30.74 16.27L30.74 16.27Q30.74 15.67 30.48 15.19Q30.22 14.71 29.62 14.21L29.62 14.21L27.24 12.17Q26.52 11.54 26.03 10.78Q25.54 10.01 25.54 8.78L25.54 8.78Q25.54 7.68 25.98 6.92Q26.42 6.17 27.23 5.77Q28.03 5.38 29.11 5.38L29.11 5.38Q30.77 5.38 31.64 6.44Q32.52 7.51 32.64 9.02L32.64 9.02L30.91 9.67Q30.82 8.95 30.62 8.41Q30.43 7.87 30.10 7.57Q29.76 7.27 29.21 7.27L29.21 7.27Q28.58 7.27 28.21 7.69Q27.84 8.11 27.84 8.69L27.84 8.69Q27.84 9.05 28.00 9.40Q28.15 9.74 28.54 10.08L28.54 10.08L30.98 12.34Q31.49 12.79 31.93 13.32Q32.38 13.85 32.66 14.52Q32.95 15.19 32.95 16.08L32.95 16.08Q32.95 17.26 32.47 18.05Q31.99 18.84 31.13 19.24Q30.26 19.63 29.11 19.63ZM38.57 19.63L38.57 19.63Q37.49 19.63 36.83 19.22Q36.17 18.82 35.87 18.07Q35.57 17.33 35.57 16.32L35.57 16.32L35.57 7.27L34.10 7.27L34.10 5.57L35.57 5.57L35.57 1.51L38.14 1.51L38.14 5.57L40.37 5.57L40.37 7.27L38.14 7.27L38.14 16.15Q38.14 16.97 38.40 17.32Q38.66 17.66 39.41 17.66L39.41 17.66Q39.60 17.66 39.85 17.64Q40.10 17.62 40.34 17.59L40.34 17.59L40.34 19.49Q39.86 19.56 39.46 19.60Q39.05 19.63 38.57 19.63ZM46.10 19.63L46.10 19.63Q44.47 19.63 43.58 19.00Q42.70 18.36 42.35 17.12Q42 15.89 42 14.09L42 14.09L42 10.92Q42 9.07 42.36 7.85Q42.72 6.62 43.62 6.00Q44.52 5.38 46.10 5.38L46.10 5.38Q47.86 5.38 48.68 6.10Q49.51 6.82 49.78 8.17Q50.04 9.53 50.04 11.42L50.04 11.42L50.04 12.55L44.57 12.55L44.57 15.34Q44.57 16.18 44.72 16.70Q44.88 17.23 45.23 17.48Q45.58 17.74 46.13 17.74L46.13 17.74Q46.70 17.74 47.00 17.46Q47.30 17.18 47.41 16.67Q47.52 16.15 47.52 15.46L47.52 15.46L47.52 14.62L50.02 14.62L50.02 15.14Q50.02 17.23 49.13 18.43Q48.24 19.63 46.10 19.63ZM44.57 10.42L44.57 11.16L47.52 11.16L47.52 9.91Q47.52 9.05 47.42 8.46Q47.33 7.87 47.03 7.57Q46.73 7.27 46.08 7.27L46.08 7.27Q45.46 7.27 45.13 7.56Q44.81 7.85 44.69 8.53Q44.57 9.22 44.57 10.42L44.57 10.42ZM55.01 19.44L52.44 19.44L52.44 5.57L55.01 5.57L55.01 7.54Q55.78 6.26 56.54 5.83Q57.31 5.40 58.08 5.40L58.08 5.40Q58.18 5.40 58.26 5.40Q58.34 5.40 58.49 5.42L58.49 5.42L58.49 8.26Q58.20 8.14 57.83 8.05Q57.46 7.97 57.07 7.97L57.07 7.97Q56.47 7.97 55.98 8.24Q55.49 8.52 55.01 9.31L55.01 9.31L55.01 19.44ZM62.81 19.44L60.24 19.44L60.24 5.57L62.81 5.57L62.81 19.44ZM62.81 3.50L60.24 3.50L60.24 0.82L62.81 0.82L62.81 3.50ZM71.95 19.44L65.04 19.44L65.04 17.71L69.29 7.49L65.47 7.49L65.47 5.57L72.05 5.57L72.05 6.96L67.78 17.50L71.95 17.50L71.95 19.44ZM77.74 19.63L77.74 19.63Q76.10 19.63 75.22 19.00Q74.33 18.36 73.98 17.12Q73.63 15.89 73.63 14.09L73.63 14.09L73.63 10.92Q73.63 9.07 73.99 7.85Q74.35 6.62 75.25 6.00Q76.15 5.38 77.74 5.38L77.74 5.38Q79.49 5.38 80.32 6.10Q81.14 6.82 81.41 8.17Q81.67 9.53 81.67 11.42L81.67 11.42L81.67 12.55L76.20 12.55L76.20 15.34Q76.20 16.18 76.36 16.70Q76.51 17.23 76.86 17.48Q77.21 17.74 77.76 17.74L77.76 17.74Q78.34 17.74 78.64 17.46Q78.94 17.18 79.04 16.67Q79.15 16.15 79.15 15.46L79.15 15.46L79.15 14.62L81.65 14.62L81.65 15.14Q81.65 17.23 80.76 18.43Q79.87 19.63 77.74 19.63ZM76.20 10.42L76.20 11.16L79.15 11.16L79.15 9.91Q79.15 9.05 79.06 8.46Q78.96 7.87 78.66 7.57Q78.36 7.27 77.71 7.27L77.71 7.27Q77.09 7.27 76.76 7.56Q76.44 7.85 76.32 8.53Q76.20 9.22 76.20 10.42L76.20 10.42Z" transform="translate(51, 2.364)"></path></svg>
