<svg height="512pt" viewBox="-11 0 512 512" width="512pt" xmlns="http://www.w3.org/2000/svg"><path d="m468.820312 167.226562c-38.207031-85.578124-124.042968-145.226562-223.820312-145.226562-135.308594 0-245 109.691406-245 245 0 62.644531 23.523438 119.789062 62.203125 163.109375l128.5 75.839844c17.464844 3.953125 35.636719 6.050781 54.296875 6.050781 109.855469 0 202.824219-72.304688 233.914062-171.921875zm0 0" fill="#1d3ba8"/><path d="m429.605469 186.679688-63.964844 36.929687 79.671875 137.992187 32.753906-18.914062c5.515625-16.992188 9.222656-34.800781 10.898438-53.195312zm0 0" fill="#c1d629"/><path d="m365.632812 223.601562 63.960938-36.925781 28.46875 49.308594-63.960938 36.925781zm0 0" fill="#9dc422"/><path d="m467.671875 164.703125-17.304687 9.988281 38.253906 66.257813c-2.851563-26.964844-10.074219-52.617188-20.949219-76.246094zm0 0" fill="#e2ef35"/><path d="m467.671875 164.703125-17.304687 9.988281 28.46875 49.3125 6.671874-3.851562c-3.757812-19.394532-9.796874-37.976563-17.835937-55.449219zm0 0" fill="#c1d629"/><path d="m188.535156 325.851562 71.609375-41.34375 79.667969 137.988282-71.609375 41.34375zm0 0" fill="#82b218"/><path d="m280.90625 272.519531 63.960938-36.929687 79.667968 137.988281-63.960937 36.929687zm0 0" fill="#9dc422"/><path d="m280.90625 272.523438 63.960938-36.929688 28.46875 49.308594-63.960938 36.929687zm0 0" fill="#82b218"/><path d="m190.996094 324.441406-75.890625 43.816406c-20.511719 11.839844-27.539063 38.070313-15.699219 58.582032l33.535156 58.082031c19.035156 9.808594 39.527344 17.1875 61.058594 21.746094.257812-.140625.519531-.273438.773438-.421875l75.890624-43.816406zm0 0" fill="#b7dbf6"/><path d="m186.097656 457.609375c-4.132812-7.160156-13.289062-9.613281-20.449218-5.480469-7.160157 4.136719-9.613282 13.292969-5.480469 20.453125 4.136719 7.160157 13.289062 9.613281 20.449219 5.476563 7.164062-4.132813 9.617187-13.289063 5.480468-20.449219zm0 0" fill="#51eded"/><path d="m343.570312 236.339844 23.359376-13.484375 79.667968 137.984375-23.359375 13.488281zm0 0" fill="#e8f3fc"/><path d="m343.570312 236.347656 23.359376-13.488281 28.46875 49.308594-23.359376 13.488281zm0 0" fill="#b7dbf6"/><path d="m428.304688 187.429688 60.425781 104.660156c.839843-8.25 1.269531-16.621094 1.269531-25.089844 0-10.085938-.621094-20.023438-1.808594-29.789062l-36.527344-63.265626zm0 0" fill="#e8f3fc"/><path d="m428.296875 187.425781 23.359375-13.488281 28.46875 49.308594-23.359375 13.488281zm0 0" fill="#b7dbf6"/><path d="m258.84375 285.257812 23.359375-13.488281 79.667969 137.988281-23.359375 13.488282zm0 0" fill="#e8f3fc"/><path d="m219.507812 159.570312 36.929688-63.960937 137.984375 79.667969-36.925781 63.960937zm0 0" fill="#f9ce00"/><path d="m219.507812 159.570312 36.929688-63.960937 49.265625 28.445313-36.929687 63.957031zm0 0" fill="#f4b500"/><path d="m406.417969 154.503906 35.171875-60.921875c2.625-4.546875 1.066406-10.359375-3.476563-12.984375l-121.527343-70.164062c-4.546876-2.625-10.359376-1.066406-12.984376 3.480468l-35.175781 60.921876zm0 0" fill="#fce275"/><path d="m117.253906 336.667969 41.34375-71.609375 137.988282 79.671875-41.34375 71.609375zm0 0" fill="#f29b00"/><path d="m170.589844 244.296875 36.929687-63.960937 137.984375 79.667968-36.929687 63.960938zm0 0" fill="#f4b500"/><path d="m170.589844 244.292969 36.925781-63.960938 49.265625 28.445313-36.925781 63.960937zm0 0" fill="#f29b00"/><path d="m118.679688 334.207031-43.816407 75.890625c-5.078125 8.796875-6.675781 18.644532-5.238281 27.957032 33.324219 34.160156 76.535156 58.625 125.019531 68.753906 7.375-3.621094 13.792969-9.390625 18.210938-17.039063l43.816406-75.890625zm0 0" fill="#d6eafc"/><path d="m181.019531 451.996094c-7.160156-4.132813-16.316406-1.679688-20.449219 5.480468-4.132812 7.160157-1.679687 16.316407 5.480469 20.449219 7.160157 4.132813 16.316407 1.679688 20.449219-5.480469 4.132812-7.160156 1.679688-16.316406-5.480469-20.449218zm0 0" fill="#51eded"/><path d="m206.769531 181.632812 13.488281-23.359374 137.984376 79.667968-13.484376 23.359375zm0 0" fill="#e8f3fc"/><path d="m206.769531 181.632812 13.488281-23.359374 49.265626 28.445312-13.488282 23.359375zm0 0" fill="#b7dbf6"/><path d="m255.6875 96.90625 13.488281-23.359375 137.988281 79.667969-13.488281 23.359375zm0 0" fill="#e8f3fc"/><path d="m255.6875 96.90625 13.488281-23.359375 49.265625 28.445313-13.488281 23.359374zm0 0" fill="#b7dbf6"/><path d="m157.851562 266.359375 13.488282-23.359375 137.984375 79.667969-13.488281 23.359375zm0 0" fill="#e8f3fc"/><path d="m60.34375 103.828125h159.335938v73.855469h-159.335938zm0 0" fill="#f95d95"/><path d="m60.34375 103.828125h56.917969v73.859375h-56.917969zm0 0" fill="#e5387f"/><path d="m219.679688 79.851562v-70.347656c0-5.246094-4.253907-9.503906-9.503907-9.503906h-140.328125c-5.25 0-9.503906 4.253906-9.503906 9.503906v70.347656zm0 0" fill="#fe99b8"/><path d="m117.261719 27.960938c0-13.332032 9.132812-24.632813 21.449219-27.960938h-68.863282c-5.25 0-9.503906 4.253906-9.503906 9.503906v70.347656h56.917969zm0 0" fill="#f95d95"/><path d="m60.34375 299.496094h159.335938v82.691406h-159.335938zm0 0" fill="#d32976"/><path d="m60.34375 299.496094h56.917969v82.691406h-56.917969zm0 0" fill="#c61e72"/><path d="m60.34375 201.660156h159.335938v73.859375h-159.335938zm0 0" fill="#e5387f"/><path d="m60.34375 201.660156h56.917969v73.859375h-56.917969zm0 0" fill="#d32976"/><path d="m60.34375 428.007812c34.117188 39.097657 80.445312 67.25 133.042969 78.527344 15.445312-6.488281 26.292969-21.753906 26.292969-39.554687v-87.632813h-159.335938zm0 0" fill="#e8f3fc"/><path d="m117.261719 459.429688v-80.082032h-56.917969v48.660156c19.535156 22.386719 43.078125 41.175782 69.503906 55.269532-7.585937-5.234375-12.585937-13.984375-12.585937-23.847656zm0 0" fill="#b7dbf6"/><path d="m188.203125 465.148438c0 8.265624-6.703125 14.96875-14.96875 14.96875-8.269531 0-14.972656-6.703126-14.972656-14.96875 0-8.269532 6.703125-14.972657 14.972656-14.972657 8.265625 0 14.96875 6.703125 14.96875 14.972657zm0 0" fill="#97cbef"/><path d="m60.34375 176.1875h159.335938v26.972656h-159.335938zm0 0" fill="#e8f3fc"/><path d="m60.34375 176.1875h56.917969v26.972656h-56.917969zm0 0" fill="#b7dbf6"/><path d="m60.34375 78.351562h159.335938v26.976563h-159.335938zm0 0" fill="#e8f3fc"/><path d="m60.34375 78.355469h56.917969v26.972656h-56.917969zm0 0" fill="#b7dbf6"/><path d="m60.34375 274.023438h159.335938v26.972656h-159.335938zm0 0" fill="#e8f3fc"/><path d="m60.34375 274.023438h56.917969v26.972656h-56.917969zm0 0" fill="#b7dbf6"/><path d="m316.585938 10.433594c-4.546876-2.625-10.359376-1.066406-12.984376 3.480468l-35.175781 60.921876 49.167969 28.386718.847656-1.238281 29.503906-49.007813s11.675782-17.691406 32.875-5.453124zm0 0" fill="#f9ce00"/></svg>