<svg id="Layer_1" enable-background="new 0 0 511.983 511.983" height="512" viewBox="0 0 511.983 511.983" width="512" xmlns="http://www.w3.org/2000/svg"><g><path d="m255.983 10.99c-135.311 0-245.002 109.691-245.002 245.002 0 80.828 39.149 152.505 99.511 197.129l70.716 36.235c23.574 7.548 48.695 11.638 74.775 11.638 26.088 0 51.217-4.093 74.797-11.645l70.704-36.236c60.356-44.625 99.5-116.298 99.5-197.121.001-135.311-109.69-245.002-245.001-245.002z" fill="#55405e"/><path d="m369.192 197.584c-.018 1.168.015 2.365.114 3.598-6.794 2.501-41.232 16.83-41.608 50.189l-45.432 54.143c1.907 2.26 3.815 4.519 5.714 6.782 7.856 9.362 15.678 18.794 23.418 28.235 35.519-43.251 68.381-85.532 95.394-122.563-12.268-3.054-24.051-8.868-34.388-17.541-1.102-.925-2.168-1.876-3.212-2.843z" fill="#d3dcfb"/><path d="m370.91 202.208c-.123-1.129-.18-2.203-.205-3.249-9.492-8.391-16.695-18.443-21.548-29.353-28.919 30.062-61.279 65.647-94.321 103.828 9.504 10.969 19 22.083 28.411 33.245l45.948-54.759c.001-36.569 41.715-49.712 41.715-49.712z" fill="#bec8f7"/><path d="m181.84 425.2c-3.734 1.736-36.686 18.072-32.949 51.191 10.384 5.054 21.176 9.398 32.318 12.965 23.972-25.557 49.741-54.193 75.945-84.474-9.835-11.351-19.661-22.857-29.392-34.41z" fill="#d3dcfb"/><path d="m182.77 426.424 45.972-54.787c-1.586-1.881-3.174-3.76-4.755-5.643-7.849-9.354-15.664-18.777-23.397-28.209-33.229 40.461-64.131 80.074-90.099 115.336 12.479 9.225 25.871 17.282 40.006 24.034-4.666-34.868 32.273-50.731 32.273-50.731z" fill="#bec8f7"/><g><path d="m214.864 403.857c-3.559 0-7.138-1.204-10.078-3.671-6.639-5.57-7.503-15.467-1.934-22.105l18.37-21.892c5.571-6.639 15.466-7.504 22.105-1.934 6.638 5.57 7.503 15.467 1.934 22.105l-18.37 21.892c-3.102 3.698-7.549 5.605-12.027 5.605z" fill="#8fa3e5"/></g><g><path d="m278.023 328.586c-3.559 0-7.138-1.204-10.078-3.671-6.637-5.57-7.503-15.467-1.934-22.105l19.062-22.717c5.569-6.638 15.468-7.504 22.105-1.934s7.504 15.466 1.934 22.105l-19.062 22.717c-3.102 3.698-7.549 5.605-12.027 5.605z" fill="#8fa3e5"/></g><path d="m139.947 203.437c.79 7.567 6.382 43.019 42.02 49.832l145.856 173.825c.833 3.244 7.283 26.033 26.311 36.276 7.381 3.974 15.674 5.489 24.77 4.573 7.809-4.538 15.351-9.484 22.582-14.831-31.638-42.966-70.588-92.383-112.169-141.937-43.933-52.357-88.233-101.81-126.508-141.597-5.138 11.551-12.909 22.146-23.246 30.82-1.163.976-2.348 1.911-3.547 2.815 1.27.117 2.577.195 3.931.224z" fill="#ffdd40"/><path d="m329.196 426.396-146.426-174.503c-39.546-7.182-41.444-49.941-41.444-49.941-1.228 0-2.408-.036-3.543-.104-9.902 7.874-21.039 13.212-32.61 16.092 32.537 44.602 73.546 96.817 117.478 149.174 37.067 44.174 74.38 86.255 108.13 122.234 18.156-5.815 35.383-13.696 51.42-23.354-41.96 6.96-53.005-39.598-53.005-39.598z" fill="#ffc839"/><g><path d="m297.101 403.829c-4.478 0-8.923-1.906-12.027-5.605l-82.221-97.987c-5.569-6.638-4.704-16.535 1.934-22.105 6.637-5.57 16.534-4.705 22.105 1.934l82.221 97.987c5.569 6.638 4.703 16.535-1.934 22.105-2.94 2.466-6.518 3.671-10.078 3.671z" fill="#ff9d33"/></g><path d="m162.545 97.769c-.065.193-.123.389-.194.58-9.468 25.596-36.456 16.533-39.131 15.563l.767.914c3.48 4.147 4.483 9.835 2.631 14.922l-11.027 30.297c-1.195 3.284-3.467 5.989-6.358 7.751-.73 4.288-1.923 16.185 5.136 25.18 5.181 6.604 13.636 10.108 25.131 10.442.609-.488 1.227-.96 1.826-1.467 30.91-26.149 38.722-69.504 21.219-104.182z" fill="#ffe98d"/><path d="m111.01 166.534c-1.989 1.646-4.396 2.787-7.026 3.25l-31.752 5.599c-5.331.94-10.758-1.035-14.237-5.182l-43.163-51.439c-4.319-5.147-12.632-2.792-13.711 3.839-3.969 24.402 2.557 50.358 20.248 70.5 30.712 34.966 84.428 38.907 119.957 8.85-38.989.001-30.316-35.416-30.316-35.417z" fill="#ffdd40"/><g><path d="m182.77 426.424c-6.637-5.57-7.503-15.467-1.934-22.105l22.017-26.238c5.569-6.638 15.466-7.504 22.105-1.934 6.637 5.57 7.503 15.467 1.934 22.105l-22.016 26.238c-5.542 6.604-15.436 7.531-22.106 1.934z" fill="#a4b3ed"/></g><g><path d="m287.008 302.198c-6.637-5.57-7.503-15.467-1.934-22.105l22.017-26.238c5.569-6.638 15.466-7.504 22.105-1.934 6.637 5.57 7.503 15.467 1.934 22.105l-22.016 26.238c-5.544 6.605-15.438 7.53-22.106 1.934z" fill="#a4b3ed"/></g><g><path d="m307.09 424.462-22.017-26.238c-5.569-6.638-4.703-16.535 1.934-22.105 6.639-5.569 16.533-4.705 22.105 1.934l22.016 26.238c5.569 6.638 4.703 16.535-1.934 22.105-6.667 5.595-16.558 4.674-22.104-1.934z" fill="#ffb332"/></g><g><path d="m202.853 300.236-22.017-26.238c-5.569-6.638-4.703-16.535 1.934-22.105 6.639-5.569 16.534-4.705 22.105 1.934l22.016 26.238c5.569 6.638 4.703 16.535-1.934 22.105-6.667 5.595-16.558 4.674-22.104-1.934z" fill="#ffb332"/></g><g fill="#6e5779"><path d="m11.241 244.946c-.162 3.663-.259 7.342-.259 11.045 0 61.353 22.561 117.429 59.829 160.408 92.731-44.008 67.043-96.059 37.682-137.34-20.665-29.053-66.567-34.208-97.252-34.113z"/><path d="m500.985 255.992c0-3.698-.097-7.373-.259-11.031-30.654-.329-78.166 4.393-99.294 34.099-29.513 41.495-55.316 93.872 39.133 138.024 37.622-43.068 60.42-99.415 60.42-161.092z"/><path d="m255.983 10.99c-25.488 0-50.064 3.896-73.172 11.117 3.411 61.584 34.866 109.828 73.172 109.828s69.761-48.244 73.172-109.828c-23.107-7.222-47.684-11.117-73.172-11.117z"/></g><path d="m163.351 99.35c-3.055-6.379-6.954-12.482-11.71-18.151-16.731-19.939-40.591-30.346-64.724-30.648-6.685-.083-10.387 7.72-6.09 12.841l43.16 51.435s29.398 11.464 39.364-15.477z" fill="#fff6d2"/><path d="m481.306 70.643c-16.68-13.996-37.119-20.547-57.3-20.045l.007.007c-2.409 2.756-8.099 10.291-8.156 20.04-.043 7.226 3.033 14.069 9.126 20.352l1.542-.561c5.087-1.851 10.775-.848 14.921 2.631l24.698 20.724c4.147 3.48 6.122 8.907 5.182 14.238l-5.599 31.752c-.94 5.331-4.652 9.755-9.739 11.607l-30.297 11.027c-5.087 1.851-10.775.848-14.921-2.631l-11.008-9.237c-4.524.259-16.762 1.742-24.374 10.148-4.635 5.118-6.682 11.868-6.107 20.075.543.479 1.071.97 1.629 1.439 36.331 30.485 90.495 25.746 120.98-10.585 30.486-36.332 25.747-90.496-10.584-120.981z" fill="#e9efff"/><path d="m401.485 171.993-15.413-12.933c-4.147-3.48-6.122-8.907-5.182-14.238l5.599-31.752c.94-5.331 4.652-9.755 9.739-11.606l30.297-11.028c-20.111-20.111-.942-39.362-.429-39.87-24.487.016-48.799 10.436-65.77 30.662-30.485 36.331-25.746 90.496 10.585 120.981-3.324-30.535 30.574-30.216 30.574-30.216z" fill="#d3dcfb"/></g></svg>