<svg height="512pt" viewBox="0 0 512 512" width="512pt" xmlns="http://www.w3.org/2000/svg"><path d="m512 256c0 141.386719-114.613281 256-256 256s-256-114.613281-256-256 114.613281-256 256-256 256 114.613281 256 256zm0 0" fill="#84deea"/><path d="m252.246094 111.019531-25.824219-4.519531c-1.96875-6.941406-4.820313-13.507812-8.445313-19.5625l14.828126-22.246094c4.335937-6.5 3.476562-15.15625-2.046876-20.679687-5.628906-5.632813-14.492187-6.402344-21.011718-1.824219l-21.953125 15.414062c-5.984375-3.359374-12.425781-6-19.222657-7.773437l-5.332031-26.652344c-1.53125-7.660156-8.257812-13.175781-16.070312-13.175781-7.964844 0-14.773438 5.722656-16.148438 13.566406l-4.636719 26.507813c-6.773437 1.847656-13.1875 4.546875-19.136718 7.972656l-22.554688-15.039063c-6.5-4.332031-15.15625-3.476562-20.679687 2.050782-5.628907 5.628906-6.402344 14.492187-1.824219 21.007812l15.203125 21.652344c-3.5625 6.09375-6.355469 12.691406-8.25 19.660156l-25.964844 5.195313c-7.660156 1.53125-13.175781 8.257812-13.175781 16.074219 0 7.960937 5.722656 14.773437 13.566406 16.144531l25.28125 4.425781c1.875 7.277344 4.746094 14.152344 8.429688 20.5l-14.269532 21.402344c-4.332031 6.5-3.476562 15.15625 2.046876 20.683594 5.632812 5.628906 14.496093 6.398437 21.011718 1.824218l20.535156-14.417968c6.488282 3.816406 13.546876 6.777343 21.027344 8.6875l4.945313 24.738281c1.53125 7.664062 8.261719 13.175781 16.074219 13.175781 7.960937 0 14.773437-5.71875 16.144531-13.566406l4.304687-24.597656c7.453125-2 14.484375-5.015626 20.929688-8.90625l21.09375 14.0625c6.5 4.332031 15.15625 3.476562 20.683594-2.046876 5.628906-5.632812 6.398437-14.496093 1.824218-21.011718l-14.628906-20.835938c3.605469-6.375 6.378906-13.28125 8.167969-20.578125l25.46875-5.09375c7.664062-1.53125 13.175781-8.257812 13.175781-16.074219 0-7.960937-5.71875-14.769531-13.566406-16.144531zm-104.339844 45.003907c-15.027344 0-27.207031-12.183594-27.207031-27.210938s12.179687-27.207031 27.207031-27.207031 27.210938 12.179687 27.210938 27.207031-12.183594 27.210938-27.210938 27.210938zm0 0" fill="#056099"/><path d="m124.238281 206.945312c-6.226562-1.890624-12.136719-4.5-17.636719-7.734374l-20.535156 14.417968c-6.515625 4.574219-15.378906 3.804688-21.007812-1.828125-5.527344-5.523437-6.382813-14.179687-2.046875-20.679687l14.265625-21.402344c-3.679688-6.347656-6.554688-13.222656-8.425782-20.5l-25.285156-4.425781c-7.84375-1.371094-13.566406-8.183594-13.566406-16.144531 0-7.8125 5.515625-14.542969 13.175781-16.074219l25.96875-5.191407c1.890625-6.972656 4.683594-13.566406 8.246094-19.664062l-15.203125-21.652344c-4.574219-6.515625-3.804688-15.378906 1.824219-21.007812 5.523437-5.527344 14.179687-6.382813 20.679687-2.050782l22.554688 15.039063c5.3125-3.0625 11-5.535156 16.980468-7.347656-16.21875 21.816406-25.820312 48.84375-25.820312 78.113281 0 29.28125 9.605469 56.316406 25.832031 78.132812zm0 0" fill="#015081"/><path d="m147.90625 83.464844c-25.046875 0-45.347656 20.304687-45.347656 45.347656 0 25.046875 20.300781 45.351562 45.347656 45.351562s45.351562-20.304687 45.351562-45.351562c0-25.042969-20.304687-45.347656-45.351562-45.347656zm0 72.558594c-15.027344 0-27.207031-12.183594-27.207031-27.210938s12.179687-27.207031 27.207031-27.207031 27.210938 12.179687 27.210938 27.207031-12.183594 27.210938-27.210938 27.210938zm0 0" fill="#012d4e"/><path d="m494.40625 280.683594c.171875 24.925781-20.871094 45.316406-45.796875 45.316406h-61.167969c-7.277344 0-13.433594 5.183594-14.90625 12.308594-8.457031 40.925781-44.695312 71.691406-88.128906 71.691406h-65.089844c-5.058594 0-9.78125 2.527344-12.597656 6.730469-13.460938 20.058593-36.339844 33.269531-62.3125 33.269531h-5c-41.421875 0-75-33.578125-75-75 0-1.855469 0-55 0-55h.09375c.015625-.496094.039062-.992188.058594-1.488281-12.144532-8.058594-20.152344-21.847657-20.152344-37.511719 0-20.054688 13.125-37.039062 31.25-42.847656 2.671875-.855469 4.011719-3.828125 2.96875-6.429688-2.074219-5.167968-3.21875-10.8125-3.21875-16.722656 0-24.851562 20.148438-45 45-45h.054688c2.730468.003906 4.949218-2.214844 4.945312-4.945312v-.054688c0-24.851562 20.148438-45 45-45 7.039062 0 13.695312 1.621094 19.625 4.503906 2.332031 1.132813 5.101562.261719 6.398438-1.984375 7.777343-13.457031 22.316406-22.519531 38.976562-22.519531 12.335938 0 23.503906 4.964844 31.632812 13.003906 1.855469 1.835938 4.882813 1.835938 6.734376 0 8.128906-8.035156 19.300781-13.003906 31.632812-13.003906 16.664062 0 31.203125 9.0625 38.980469 22.519531 1.296875 2.246094 4.0625 3.117188 6.394531 1.984375 5.933594-2.882812 12.585938-4.503906 19.625-4.503906 24.855469 0 45 20.148438 45 45v.054688c0 2.730468 2.214844 4.949218 4.945312 4.945312h.054688c24.855469 0 45 20.148438 45 45 0 6.144531-1.234375 11.992188-3.46875 17.328125-1.058594 2.527344.226562 5.433594 2.804688 6.367187 17.207031 6.234376 29.53125 22.660157 29.664062 41.988282zm0 0" fill="#fd5ca6"/><path d="m486.824219 306c-8.074219 12.058594-21.816407 20-37.417969 20-.78125 0-32.992188 0-55 0-30.328125 0-55-24.671875-55-55 0-5.523438 4.476562-10 10-10s10 4.476562 10 10c0 19.300781 15.703125 35 35 35h52.476562c-2.855468-16.449219-17.222656-29-34.476562-29-5.519531 0-10-4.476562-10-10s4.480469-10 10-10c28.300781 0 51.667969 21.484375 54.667969 49zm-156.242188 21.667969c-8.71875.050781-16.957031 2.152343-24.273437 5.828125-6.546875-23.054688-27.777344-39.996094-52.902344-39.996094-5.519531 0-10 4.476562-10 10 0 .085938.011719.164062.011719.25s-.011719.164062-.011719.25c0 17.996094-13.652344 32.859375-31.144531 34.78125-9.160157-17.671875-27.613281-29.78125-48.855469-29.78125h-7.605469c7.753907-9.375 12.464844-21.351562 12.601563-34.40625.058594-5.472656-3.980469-10.285156-9.445313-10.578125-5.773437-.308594-10.550781 4.28125-10.550781 9.984375 0 19.300781-15.699219 35-35 35h-18.203125c-1.304687 0-2.523437-.632812-3.285156-1.6875-5.351563-7.398438-8.511719-16.484375-8.511719-26.3125 0-18.886719 11.640625-35.039062 28.136719-41.710938.480469-.195312 1-.289062 1.519531-.289062h75.34375c19.234375 0 34.894531 15.59375 35 34.800781.027344 4.542969 2.878906 8.675781 7.273438 9.839844 6.699218 1.769531 12.726562-3.230469 12.726562-9.640625 0-30.328125-24.671875-55-55-55h-3.535156c4.3125-14.441406 17.710937-25 33.535156-25h79.660156c5.324219 0 9.972656-4.019531 10.320313-9.332031.378906-5.824219-4.234375-10.667969-9.980469-10.667969h-25.925781c-4.683594-25.382812-26.839844-44.722656-53.496094-44.996094-5.472656-.058594-10.292969 4.019532-10.5625 9.484375-.289063 5.757813 4.292969 10.511719 9.984375 10.511719 15.824219 0 29.222656 10.558594 33.539062 25h-33.539062c-26.910156 0-49.351562 19.433594-54.070312 45h-45.90625c-2.195313 0-4.019532-1.761719-4.023438-3.960938 0-.011718 0-.027343 0-.039062 0-24.851562 20.148438-45 45-45h.054688c2.730468 0 4.945312-2.214844 4.945312-4.945312v-.054688c0-17.859375 10.40625-33.289062 25.484375-40.558594-5.894531-2.84375-12.5-4.441406-19.484375-4.441406-24.851562 0-45 20.148438-45 45v.054688c0 2.730468-2.214844 4.945312-4.945312 4.945312h-.054688c-24.851562 0-45 20.148438-45 45 0 5.910156 1.144531 11.554688 3.214844 16.722656 1.046875 2.601563-.296875 5.574219-2.964844 6.429688-18.125 5.808594-31.25 22.792968-31.25 42.847656 0 15.664062 8.007812 29.453125 20.148438 37.511719-.015626.496093-.039063.992187-.054688 1.488281h-.09375v55c0 41.421875 33.578125 75 75 75h5c5.859375 0 11.554688-.683594 17.023438-1.953125-16.558594-3.832031-31.011719-13.148437-41.355469-25.925781-1.753907-2.171875-.792969-5.394532 1.832031-6.335938 21.097656-7.554687 36.273438-27.644531 36.496094-51.253906.054687-5.453125-4.039063-10.246094-9.484375-10.515625-5.757813-.289063-10.511719 4.292969-10.511719 9.984375 0 16.710938-11.773438 30.71875-27.457031 34.175781-2.066407.457031-4.152344-.777343-4.726563-2.8125-1.828125-6.476562-2.816406-13.300781-2.816406-20.363281v-41.976562c0-2.222657 1.804688-4.023438 4.027344-4.023438h55.972656c19.234375 0 34.890625 15.59375 35 34.800781.027344 4.542969 2.878906 8.675781 7.273438 9.839844 6.695312 1.769531 12.726562-3.230469 12.726562-9.640625 0-1.980469-.109375-3.929688-.3125-5.855469 22.246094-3.96875 39.902344-21.367187 44.265625-43.480469 14.761719 3.910157 25.726563 17.246094 26.03125 33.152344-7.796875 9.492188-12.484375 21.632813-12.484375 34.847656v27.335938h8.5c3.898438 0 7.734375-.257812 11.5-.738281v-26.597657c0-19.296874 15.703125-35 35-35 5.691406 0 10.273438-4.753906 9.988281-10.507812-.265625-5.367188-4.9375-9.519531-10.3125-9.488281zm66.824219-121.167969c5.523438 0 10-4.476562 10-10 0-10.621094 4.761719-20.144531 12.253906-26.570312-2.398437-.335938-4.253906-2.378907-4.253906-4.875v-.054688c0-5.210938-.894531-10.210938-2.523438-14.867188-15.304687 9.777344-25.476562 26.902344-25.476562 46.367188 0 5.523438 4.476562 10 10 10zm-109 27.5c0 5.523438 4.480469 10 10 10 17.535156 0 33.167969-8.257812 43.246094-21.078125 9.710937 15.636719 27.03125 26.078125 46.753906 26.078125 5.523438 0 10-4.476562 10-10s-4.476562-10-10-10c-19.296875 0-35-15.699219-35-35 0-.507812-.050781-1.003906-.125-1.492188.074219-1.160156.125-2.328124.125-3.507812v-65.660156c-.886719.363281-1.765625.746094-2.625 1.164062-2.332031 1.132813-5.097656.261719-6.394531-1.984375-2.835938-4.902343-6.574219-9.214843-10.980469-12.722656v79.203125c0 19.300781-15.699219 35-35 35-5.519531 0-10 4.476562-10 10zm0 0" fill="#fd3d96"/><path d="m405.96875 332.882812-16.386719-2.867187c-1.664062-5.894531-4.050781-11.476563-7.0625-16.65625l9.320313-13.976563c4.332031-6.503906 3.476562-15.160156-2.050782-20.683593-5.628906-5.632813-14.492187-6.402344-21.007812-1.824219l-13.617188 9.558594c-5.226562-2.925782-10.847656-5.230469-16.773437-6.800782l-3.289063-16.457031c-1.53125-7.660156-8.261718-13.175781-16.074218-13.175781-7.960938 0-14.773438 5.722656-16.144532 13.566406l-2.867187 16.386719c-5.894531 1.664063-11.476563 4.050781-16.65625 7.0625l-13.980469-9.320313c-6.5-4.332031-15.15625-3.476562-20.679687 2.046876-5.632813 5.632812-6.402344 14.496093-1.824219 21.011718l9.558594 13.613282c-2.925782 5.230468-5.230469 10.851562-6.800782 16.777343l-16.457031 3.289063c-7.660156 1.53125-13.175781 8.261718-13.175781 16.074218 0 7.960938 5.722656 14.773438 13.566406 16.144532l16.386719 2.867187c1.664063 5.890625 4.050781 11.476563 7.0625 16.65625l-9.320313 13.976563c-4.332031 6.503906-3.476562 15.160156 2.046876 20.683594 5.632812 5.628906 14.492187 6.398437 21.011718 1.824218l13.613282-9.558594c5.230468 2.925782 10.851562 5.230469 16.777343 6.800782l3.289063 16.457031c1.53125 7.660156 8.261718 13.175781 16.074218 13.175781 7.960938 0 14.773438-5.722656 16.144532-13.566406l2.867187-16.386719c5.890625-1.664062 11.476563-4.050781 16.65625-7.0625l13.976563 9.320313c6.503906 4.332031 15.160156 3.476562 20.683594-2.050782 5.628906-5.628906 6.398437-14.492187 1.824218-21.007812l-9.558594-13.617188c2.925782-5.226562 5.230469-10.847656 6.800782-16.769531l16.457031-3.292969c7.660156-1.53125 13.175781-8.257812 13.175781-16.074218 0-7.960938-5.722656-14.773438-13.566406-16.144532zm-86.203125 44.09375c-15.027344 0-27.207031-12.179687-27.207031-27.207031 0-15.027343 12.179687-27.210937 27.207031-27.210937s27.210937 12.183594 27.210937 27.210937c0 15.027344-12.179687 27.207031-27.210937 27.207031zm0 0" fill="#056099"/><path d="m337.617188 430.464844-.964844 5.503906c-1.371094 7.84375-8.183594 13.566406-16.144532 13.566406-7.8125 0-14.542968-5.515625-16.074218-13.175781l-3.289063-16.457031c-5.925781-1.570313-11.546875-3.875-16.777343-6.800782l-13.613282 9.558594c-6.519531 4.574219-15.378906 3.808594-21.011718-1.824218-5.523438-5.523438-6.378907-14.179688-2.046876-20.683594l9.320313-13.976563c-3.011719-5.179687-5.398437-10.765625-7.0625-16.65625l-16.386719-2.867187c-7.84375-1.371094-13.566406-8.183594-13.566406-16.144532 0-7.8125 5.515625-14.539062 13.175781-16.074218l16.457031-3.289063c1.570313-5.925781 3.875-11.546875 6.800782-16.773437l-9.558594-13.617188c-4.574219-6.515625-3.808594-15.378906 1.824219-21.007812 5.523437-5.527344 14.179687-6.382813 20.679687-2.050782l12.089844 8.0625c-4.5625 12.558594-7.050781 26.109376-7.050781 40.242188 0 45.371094 25.632812 84.75 63.199219 104.464844zm0 0" fill="#015081"/><path d="m319.765625 304.417969c-25.042969 0-45.347656 20.304687-45.347656 45.351562 0 25.042969 20.304687 45.347657 45.347656 45.347657 25.046875 0 45.351563-20.304688 45.351563-45.347657 0-25.046875-20.304688-45.351562-45.351563-45.351562zm0 72.558593c-15.027344 0-27.207031-12.179687-27.207031-27.207031 0-15.027343 12.179687-27.210937 27.207031-27.210937s27.210937 12.183594 27.210937 27.210937c0 15.027344-12.179687 27.207031-27.210937 27.207031zm0 0" fill="#012d4e"/></svg>