<svg height="512pt" viewBox="-7 0 512 512" width="512pt" xmlns="http://www.w3.org/2000/svg"><path d="m433.695312 428.273438c37.714844-43.09375 60.578126-99.507813 60.578126-161.273438 0-135.308594-109.691407-245-245-245-135.3125 0-245 109.691406-245 245 0 61.765625 22.863281 118.183594 60.578124 161.273438zm0 0" fill="#1d3ba8"/><path d="m485.839844 7.5h-22.519532c-2.875 0-5.203124 2.328125-5.203124 5.203125v22.523437c0 2.871094 2.328124 5.199219 5.203124 5.199219h22.519532c2.875 0 5.203125-2.328125 5.203125-5.199219v-22.523437c0-2.875-2.328125-5.203125-5.203125-5.203125zm0 0" fill="#e8f3fc"/><path d="m35.226562 7.5h-22.523437c-2.875 0-5.203125 2.328125-5.203125 5.203125v22.523437c0 2.871094 2.328125 5.199219 5.203125 5.199219h22.523437c2.871094 0 5.199219-2.328125 5.199219-5.199219v-22.523437c0-2.875-2.328125-5.203125-5.199219-5.203125zm0 0" fill="#e8f3fc"/><path d="m485.839844 47.925781h-22.519532c-7.003906 0-12.703124-5.695312-12.703124-12.699219v-22.523437c0-7.003906 5.699218-12.703125 12.703124-12.703125h22.519532c7.003906 0 12.703125 5.699219 12.703125 12.703125v22.523437c0 7.003907-5.699219 12.699219-12.703125 12.699219zm-20.222656-15h17.925781v-17.925781h-17.925781zm20.222656-17.925781h.011718zm0 0" fill="#e5387f"/><path d="m35.226562 47.925781h-22.523437c-7.003906 0-12.703125-5.695312-12.703125-12.699219v-22.523437c0-7.003906 5.699219-12.703125 12.703125-12.703125h22.523437c7.003907 0 12.699219 5.699219 12.699219 12.703125v22.523437c0 7.003907-5.695312 12.699219-12.699219 12.699219zm-20.226562-15h17.929688v-17.925781h-17.929688zm20.226562-17.925781h.007813zm0 0" fill="#e5387f"/><g fill="#ef4a8a"><path d="m23.964844 354.972656c-4.144532 0-7.5-3.308594-7.5-7.453125v-.097656c0-4.144531 3.355468-7.5 7.5-7.5 4.140625 0 7.5 3.355469 7.5 7.5s-3.359375 7.550781-7.5 7.550781zm0-34.613281c-4.144532 0-7.5-3.308594-7.5-7.449219v-.101562c0-4.140625 3.355468-7.5 7.5-7.5 4.140625 0 7.5 3.359375 7.5 7.5 0 4.144531-3.359375 7.550781-7.5 7.550781zm0-34.613281c-4.144532 0-7.5-3.308594-7.5-7.449219v-.097656c0-4.144531 3.355468-7.5 7.5-7.5 4.140625 0 7.5 3.355469 7.5 7.5 0 4.140625-3.359375 7.546875-7.5 7.546875zm0-34.609375c-4.144532 0-7.5-3.308594-7.5-7.453125v-.097656c0-4.144532 3.355468-7.5 7.5-7.5 4.140625 0 7.5 3.355468 7.5 7.5 0 4.144531-3.359375 7.550781-7.5 7.550781zm0-34.613281c-4.144532 0-7.5-3.308594-7.5-7.449219v-.101563c0-4.140625 3.355468-7.5 7.5-7.5 4.140625 0 7.5 3.359375 7.5 7.5 0 4.144532-3.359375 7.550782-7.5 7.550782zm0-34.613282c-4.144532 0-7.5-3.304687-7.5-7.449218v-.097657c0-4.144531 3.355468-7.5 7.5-7.5 4.140625 0 7.5 3.355469 7.5 7.5 0 4.140625-3.359375 7.546875-7.5 7.546875zm0-34.609375c-4.144532 0-7.5-3.308593-7.5-7.453125v-.097656c0-4.144531 3.355468-7.5 7.5-7.5 4.140625 0 7.5 3.355469 7.5 7.5s-3.359375 7.550781-7.5 7.550781zm0-34.613281c-4.144532 0-7.5-3.308594-7.5-7.449219v-.097656c0-4.144531 3.355468-7.5 7.5-7.5 4.140625 0 7.5 3.355469 7.5 7.5 0 4.140625-3.359375 7.546875-7.5 7.546875zm0-34.613281c-4.144532 0-7.5-3.304688-7.5-7.449219v-.097656c0-4.144532 3.355468-7.5 7.5-7.5 4.140625 0 7.5 3.355468 7.5 7.5 0 4.144531-3.359375 7.546875-7.5 7.546875zm0 0"/><path d="m427.082031 31.464844h-.101562c-4.144531 0-7.5-3.359375-7.5-7.5 0-4.144532 3.355469-7.5 7.5-7.5h.101562c4.140625 0 7.5 3.355468 7.5 7.5 0 4.140625-3.359375 7.5-7.5 7.5zm-35.554687 0h-.101563c-4.140625 0-7.5-3.359375-7.5-7.5 0-4.144532 3.359375-7.5 7.5-7.5h.101563c4.144531 0 7.5 3.355468 7.5 7.5 0 4.140625-3.355469 7.5-7.5 7.5zm-35.550782 0h-.101562c-4.144531 0-7.5-3.359375-7.5-7.5 0-4.144532 3.355469-7.5 7.5-7.5h.101562c4.140626 0 7.5 3.355468 7.5 7.5 0 4.140625-3.355468 7.5-7.5 7.5zm-35.550781 0h-.101562c-4.144531 0-7.5-3.359375-7.5-7.5 0-4.144532 3.355469-7.5 7.5-7.5h.101562c4.144531 0 7.5 3.355468 7.5 7.5 0 4.140625-3.355469 7.5-7.5 7.5zm-35.550781 0h-.101562c-4.144532 0-7.5-3.359375-7.5-7.5 0-4.144532 3.355468-7.5 7.5-7.5h.101562c4.144531 0 7.5 3.355468 7.5 7.5 0 4.140625-3.359375 7.5-7.5 7.5zm-35.550781 0h-.101563c-4.144531 0-7.5-3.359375-7.5-7.5 0-4.144532 3.355469-7.5 7.5-7.5h.101563c4.140625 0 7.5 3.355468 7.5 7.5 0 4.140625-3.359375 7.5-7.5 7.5zm-35.554688 0h-.097656c-4.144531 0-7.5-3.359375-7.5-7.5 0-4.144532 3.355469-7.5 7.5-7.5h.097656c4.144531 0 7.5 3.355468 7.5 7.5 0 4.140625-3.355469 7.5-7.5 7.5zm-35.550781 0h-.101562c-4.140626 0-7.5-3.359375-7.5-7.5 0-4.144532 3.359374-7.5 7.5-7.5h.101562c4.144531 0 7.5 3.355468 7.5 7.5 0 4.140625-3.355469 7.5-7.5 7.5zm-35.550781 0h-.101563c-4.140625 0-7.5-3.359375-7.5-7.5 0-4.144532 3.359375-7.5 7.5-7.5h.101563c4.144531 0 7.5 3.355468 7.5 7.5 0 4.140625-3.355469 7.5-7.5 7.5zm-35.550781 0h-.101563c-4.144531 0-7.5-3.359375-7.5-7.5 0-4.144532 3.355469-7.5 7.5-7.5h.101563c4.144531 0 7.5 3.355468 7.5 7.5 0 4.140625-3.359376 7.5-7.5 7.5zm-35.550782 0h-.101562c-4.144532 0-7.5-3.359375-7.5-7.5 0-4.144532 3.355468-7.5 7.5-7.5h.101562c4.144532 0 7.5 3.355468 7.5 7.5 0 4.140625-3.355468 7.5-7.5 7.5zm0 0"/><path d="m474.578125 355.019531c-4.140625 0-7.5-3.355469-7.5-7.5 0-4.140625 3.359375-7.546875 7.5-7.546875 4.144531 0 7.5 3.308594 7.5 7.449219v.097656c0 4.144531-3.355469 7.5-7.5 7.5zm0-34.609375c-4.140625 0-7.5-3.359375-7.5-7.5 0-4.144531 3.359375-7.550781 7.5-7.550781 4.144531 0 7.5 3.308594 7.5 7.449219v.101562c0 4.140625-3.355469 7.5-7.5 7.5zm0-34.613281c-4.140625 0-7.5-3.359375-7.5-7.5 0-4.144531 3.359375-7.550781 7.5-7.550781 4.144531 0 7.5 3.308594 7.5 7.449218v.101563c0 4.140625-3.355469 7.5-7.5 7.5zm0-34.613281c-4.140625 0-7.5-3.355469-7.5-7.5 0-4.140625 3.359375-7.546875 7.5-7.546875 4.144531 0 7.5 3.308593 7.5 7.449219v.097656c0 4.144531-3.355469 7.5-7.5 7.5zm0-34.609375c-4.140625 0-7.5-3.359375-7.5-7.5 0-4.144531 3.359375-7.550781 7.5-7.550781 4.144531 0 7.5 3.308593 7.5 7.449218v.101563c0 4.140625-3.355469 7.5-7.5 7.5zm0-34.613281c-4.140625 0-7.5-3.355469-7.5-7.5 0-4.144532 3.359375-7.550782 7.5-7.550782 4.144531 0 7.5 3.308594 7.5 7.453125v.097657c0 4.144531-3.355469 7.5-7.5 7.5zm0-34.613282c-4.140625 0-7.5-3.355468-7.5-7.5 0-4.140625 3.359375-7.546875 7.5-7.546875 4.144531 0 7.5 3.308594 7.5 7.449219v.097656c0 4.144532-3.355469 7.5-7.5 7.5zm0-34.609375c-4.140625 0-7.5-3.355469-7.5-7.5s3.359375-7.550781 7.5-7.550781c4.144531 0 7.5 3.308594 7.5 7.453125v.097656c0 4.140625-3.355469 7.5-7.5 7.5zm0-34.613281c-4.140625 0-7.5-3.355469-7.5-7.5 0-4.140625 3.359375-7.550781 7.5-7.550781 4.144531 0 7.5 3.308593 7.5 7.453125v.097656c0 4.144531-3.355469 7.5-7.5 7.5zm0 0"/></g><path d="m434.578125 69.914062c0-3.285156-2.664063-5.949218-5.949219-5.949218h-358.714844c-3.285156 0-5.949218 2.664062-5.949218 5.949218v357.359376c44.925781 51.894531 111.28125 84.726562 185.308594 84.726562 74.023437 0 140.382812-32.832031 185.304687-84.726562zm0 0" fill="#55f3ff"/><path d="m168.558594 96.628906c0-15.78125 10.855468-29.019531 25.507812-32.664062h-124.152344c-3.285156 0-5.949218 2.664062-5.949218 5.949218v357.359376c27.757812 32.070312 63.710937 56.84375 104.589844 71.105468v-401.75zm0 0" fill="#06daf7"/><path d="m369.128906 110.125h-239.714844c-10.265624 0-18.589843 8.320312-18.589843 18.589844v51.617187c0 10.269531 8.324219 18.589844 18.589843 18.589844h14.441407c10.265625 0 18.589843-8.320313 18.589843-18.589844 0-10.265625 8.320313-18.589843 18.589844-18.589843h23.835938c10.269531 0 18.589844 8.324218 18.589844 18.589843v218.828125c0 10.269532-8.320313 18.59375-18.589844 18.59375h-1.109375c-10.269531 0-18.59375 8.320313-18.59375 18.589844v14.4375c0 10.265625 8.324219 18.589844 18.59375 18.589844h91.019531c10.269531 0 18.589844-8.324219 18.589844-18.589844v-14.4375c0-10.269531-8.320313-18.589844-18.589844-18.589844h-1.109375c-10.269531 0-18.589844-8.324218-18.589844-18.59375v-218.828125c0-10.265625 8.320313-18.589843 18.589844-18.589843h23.835937c10.269532 0 18.589844 8.324218 18.589844 18.589843 0 10.269531 8.324219 18.589844 18.589844 18.589844h14.441406c10.265625 0 18.589844-8.320313 18.589844-18.589844v-51.617187c0-10.265625-8.324219-18.589844-18.589844-18.589844zm0 0" fill="#06daf7"/><path d="m21.84375 40.425781c0-3.105469 1.550781-5.847656 3.921875-7.5h-10.765625v-17.925781h11.03125c-2.519531-1.628906-4.1875-4.453125-4.1875-7.675781 0-3.003907 1.453125-5.660157 3.6875-7.324219h-12.828125c-7.003906 0-12.703125 5.699219-12.703125 12.703125v22.519531c0 7.003906 5.699219 12.703125 12.703125 12.703125h13.0625c-2.371094-1.652343-3.921875-4.390625-3.921875-7.5zm0 0" fill="#d32976"/><path d="m472.457031 40.425781c0-3.105469 1.554688-5.847656 3.925781-7.5h-10.765624v-17.925781h11.03125c-2.519532-1.628906-4.191407-4.453125-4.191407-7.675781 0-3.003907 1.453125-5.660157 3.6875-7.324219h-12.828125c-7.003906 0-12.703125 5.699219-12.703125 12.703125v22.519531c0 7.003906 5.699219 12.703125 12.703125 12.703125h13.066406c-2.371093-1.652343-3.925781-4.390625-3.925781-7.5zm0 0" fill="#d32976"/><path d="m168.558594 110.125h-39.144532c-10.265624 0-18.589843 8.320312-18.589843 18.589844v51.617187c0 10.269531 8.324219 18.589844 18.589843 18.589844h14.441407c10.265625 0 18.589843-8.320313 18.589843-18.589844 0-5.464843 2.371094-10.363281 6.125-13.765625-.003906-.003906-.007812-.007812-.011718-.011718-31.734375-31.734376 0-56.429688 0-56.429688zm0 0" fill="#05b8e2"/></svg>