<svg height="512pt" viewBox="0 0 512.00001 512" width="512pt" xmlns="http://www.w3.org/2000/svg"><path d="m245 22c-135.308594 0-245 109.691406-245 245 0 33.253906 6.636719 64.953125 18.640625 93.867188l42.007813 67.484374c44.90625 51.265626 110.84375 83.648438 184.351562 83.648438 135.308594 0 245-109.691406 245-245s-109.691406-245-245-245zm0 0" fill="#1d3ba8"/><path d="m422.390625 408.964844-166.367187-378.9375c-17.554688-40-74.546876-40.070313-92.132813-.003906l-145.25 330.84375c10.304687 24.816406 24.566406 47.574218 42.007813 67.484374l46.933593-106.902343c.898438-2.050781 2.925781-3.375 5.164063-3.375h194.421875c2.238281 0 4.265625 1.324219 5.164062 3.375l49.996094 113.882812c7.214844 16.429688 26.378906 24.082031 42.988281 16.9375 5.734375-4.964843 11.226563-10.195312 16.472656-15.664062 4.109376-8.375 4.644532-18.429688.601563-27.640625zm-148.972656-156.480469h-126.921875c-4.070313 0-6.800782-4.179687-5.164063-7.910156l63.460938-144.546875c1.972656-4.5 8.355469-4.5 10.328125 0l63.464844 144.546875c1.632812 3.726562-1.097657 7.910156-5.167969 7.910156zm0 0" fill="#ef4a8a"/><path d="m511.921875 426.113281c-1.082031-13.429687-1.5-27.933593-1.5-42.652343v-106.4375c0-57.039063-21.171875-116.433594-108.203125-116.433594-27.832031 0-54.601562 6.019531-76.191406 15.859375-9.933594 4.527343-20.703125 13.15625-17.152344 27.09375 4.238281 12.429687 18.996094 18.035156 29.226562 12.199219 16.769532-9.566407 35.789063-16.929688 56.472657-16.929688 58.21875 0 59.222656 42.339844 59.222656 65.863281 0 3.230469-2.609375 5.863281-5.84375 5.886719-106.289063.757812-159.8125 38.269531-159.8125 105.84375 0 41.164062 29.398437 81.738281 87.03125 81.738281 36.027344 0 64.167969-15.769531 81.140625-34.949219 2.9375-3.320312 8.316406-1.613281 8.8125 2.71875l.59375 5.175782c1.410156 12.269531 12.207031 21.394531 24.722656 20.527344 12.953125-.894532 22.527344-12.5625 21.480469-25.503907zm-56.953125-70.292969c0 26.085938-19.355469 61.914063-66.273438 61.914063-26.464843 0-48.808593-16.871094-48.808593-47.210937 0-53.371094 54.289062-64.53125 109.226562-64.175782 3.238281.019532 5.855469 2.652344 5.855469 5.894532zm0 0" fill="#06daf7"/><path d="m338.101562 215.742188c16.769532-9.566407 35.789063-16.929688 56.472657-16.929688 3.617187 0 7.007812.164062 10.195312.476562-6.132812-3.925781-10.199219-10.789062-10.199219-18.609374 0-8.855469 5.210938-16.488282 12.730469-20.011719-1.671875-.046875-3.359375-.078125-5.082031-.078125-27.832031 0-54.605469 6.019531-76.191406 15.859375-9.9375 4.53125-20.707032 13.15625-17.152344 27.09375 4.234375 12.429687 18.992188 18.035156 29.226562 12.199219zm0 0" fill="#05b8e2"/><path d="m419.050781 421.398438c0-4.234376 1.269531-8.171876 3.4375-11.464844-9.125 4.832031-20.316406 7.800781-33.792969 7.800781-26.460937 0-48.808593-16.871094-48.808593-47.210937 0-38.894532 28.832031-55.367188 65.734375-61.308594-6.605469-3.816406-11.050782-10.949219-11.050782-19.128906 0-6.5625 2.863282-12.453126 7.410157-16.5-75.742188 10.195312-113.84375 45.808593-113.84375 102.816406 0 41.164062 29.402343 81.742187 87.03125 81.742187 23.417969 0 43.492187-6.664062 59.34375-16.589843-8.902344-2.394532-15.460938-10.496094-15.460938-20.15625zm0 0" fill="#05b8e2"/><path d="m200.078125 252.484375h-53.582031c-4.070313 0-6.800782-4.183594-5.164063-7.910156l63.460938-144.546875c1.164062-2.65625 3.863281-3.734375 6.289062-3.25-3.011719-5.503906-4.726562-11.820313-4.726562-18.535156 0-28.671876 30.117187-47.183594 55.585937-34.738282l-5.917968-13.476562c-17.554688-40-74.546876-40.070313-92.132813-.003906l-145.25 330.84375c10.304687 24.816406 24.566406 47.574218 42.007813 67.484374l46.933593-106.902343c.898438-2.050781 2.925781-3.375 5.164063-3.375h90.242187c-25.027343-14.078125-26.5-49.417969-2.910156-65.589844zm0 0" fill="#e5387f"/></svg>