<svg height="511pt" viewBox="-10 0 511 511.99935" width="511pt" xmlns="http://www.w3.org/2000/svg"><path d="m433.621094 423.964844c35.511718-42.511719 56.890625-97.238282 56.890625-156.960938 0-135.3125-109.695313-245.003906-245.007813-245.003906s-245.003906 109.691406-245.003906 245.003906c0 63.339844 24.035156 121.0625 63.484375 164.550782 25.46875 9.996093 222.378906 82.367187 369.636719-7.589844zm0 0" fill="#1d3ba8"/><path d="m425.429688 64.238281-364.207032 364.207031c13.378906 15.261719 28.636719 28.828126 45.390625 40.382813l147.113281 43.035156c74.121094-2.445312 139.898438-37.808593 183.199219-91.945312.28125-.351563.5625-.707031.839844-1.058594v-349.511719c0-6.4375-7.785156-9.664062-12.335937-5.109375zm-57.808594 375.988281h-219.445313l219.445313-219.441406zm0 0" fill="#05b8e2"/><path d="m367.621094 440.226562h-219.445313l94.816407-94.8125v-98.742187l-181.769532 181.773437c13.378906 15.261719 28.636719 28.828126 45.386719 40.382813l147.117187 43.035156c48.113282-1.585937 92.699219-17.058593 129.914063-42.515625-15.03125-13.378906-16.019531-29.121094-16.019531-29.121094zm0 0" fill="#07a3d3"/><path d="m425.429688 64.238281-364.210938 364.207031c6.585938 7.515626 13.628906 14.621094 21.078125 21.277344l355.46875-355.464844v-24.910156c0-6.4375-7.785156-9.664062-12.335937-5.109375zm0 0" fill="#06daf7"/><path d="m437.765625 141.835938h-10.980469c-4.144531 0-7.5-3.359376-7.5-7.503907 0-4.140625 3.355469-7.5 7.5-7.5h10.980469c4.140625 0 7.5 3.359375 7.5 7.5 0 4.144531-3.359375 7.503907-7.5 7.503907zm0 0" fill="#06daf7"/><path d="m437.765625 190.882812h-10.980469c-4.144531 0-7.5-3.359374-7.5-7.5 0-4.144531 3.355469-7.5 7.5-7.5h10.980469c4.140625 0 7.5 3.355469 7.5 7.5 0 4.140626-3.359375 7.5-7.5 7.5zm0 0" fill="#06daf7"/><path d="m437.765625 239.929688h-22.179687c-4.140626 0-7.5-3.355469-7.5-7.5 0-4.144532 3.359374-7.5 7.5-7.5h22.179687c4.140625 0 7.5 3.355468 7.5 7.5 0 4.140624-3.359375 7.5-7.5 7.5zm0 0" fill="#06daf7"/><path d="m437.765625 288.976562h-10.980469c-4.144531 0-7.5-3.355468-7.5-7.5 0-4.144531 3.355469-7.5 7.5-7.5h10.980469c4.140625 0 7.5 3.355469 7.5 7.5 0 4.144532-3.359375 7.5-7.5 7.5zm0 0" fill="#06daf7"/><path d="m437.765625 338.023438h-10.980469c-4.144531 0-7.5-3.355469-7.5-7.5 0-4.140626 3.355469-7.5 7.5-7.5h10.980469c4.140625 0 7.5 3.359374 7.5 7.5 0 4.144531-3.359375 7.5-7.5 7.5zm0 0" fill="#06daf7"/><path d="m437.765625 387.074219h-22.179687c-4.140626 0-7.5-3.359375-7.5-7.5 0-4.144531 3.359374-7.5 7.5-7.5h22.179687c4.140625 0 7.5 3.355469 7.5 7.5 0 4.140625-3.359375 7.5-7.5 7.5zm0 0" fill="#06daf7"/><path d="m246.988281 0h-109.492187v486.964844c36.4375 17.933594 77.183594 26.679687 119.242187 24.777344v-501.988282c0-5.386718-4.363281-9.753906-9.75-9.753906zm0 0" fill="#f4b500"/><path d="m168.582031 343.410156c-7.648437-2.109375-14.839843-4.886718-21.578125-8.222656-2.960937-1.46875-6.203125-2.265625-9.507812-2.265625v154.042969c36.4375 17.929687 77.183594 26.679687 119.246094 24.777344v-180.964844c-25.347657 15.617187-56.621094 21.332031-88.160157 12.632812zm0 0" fill="#f29b00"/><path d="m104.082031 9.753906v457.335938c11.085938 7.851562 22.855469 14.800781 35.195313 20.746094v-487.835938h-25.441406c-5.386719 0-9.753907 4.367188-9.753907 9.753906zm0 0" fill="#f9ce00"/><path d="m137.320312 334.089844c-7.4375 13.929687-28.109374 11.8125-33.238281-3.324219v136.324219c11.085938 7.847656 22.851563 14.796875 35.195313 20.746094v-154.914063c-.816406 0-1.574219.445313-1.957032 1.167969zm0 0" fill="#f4b500"/><g fill="#fce275"><path d="m116.070312 49.285156h-11.988281c-4.144531 0-7.5-3.355468-7.5-7.5 0-4.140625 3.355469-7.5 7.5-7.5h11.988281c4.140626 0 7.5 3.359375 7.5 7.5 0 4.144532-3.355468 7.5-7.5 7.5zm0 0"/><path d="m116.070312 102.832031h-11.988281c-4.144531 0-7.5-3.359375-7.5-7.503906 0-4.140625 3.355469-7.5 7.5-7.5h11.988281c4.140626 0 7.5 3.359375 7.5 7.5 0 4.144531-3.355468 7.503906-7.5 7.503906zm0 0"/><path d="m146.070312 156.375h-41.988281c-4.144531 0-7.5-3.355469-7.5-7.5s3.355469-7.5 7.5-7.5h41.988281c4.144532 0 7.5 3.355469 7.5 7.5 0 4.140625-3.355468 7.5-7.5 7.5zm0 0"/><path d="m116.070312 209.917969h-11.988281c-4.144531 0-7.5-3.355469-7.5-7.5 0-4.140625 3.355469-7.5 7.5-7.5h11.988281c4.140626 0 7.5 3.359375 7.5 7.5 0 4.144531-3.355468 7.5-7.5 7.5zm0 0"/><path d="m116.070312 263.464844h-11.988281c-4.144531 0-7.5-3.359375-7.5-7.5 0-4.144532 3.355469-7.5 7.5-7.5h11.988281c4.140626 0 7.5 3.355468 7.5 7.5 0 4.140625-3.355468 7.5-7.5 7.5zm0 0"/><path d="m146.070312 317.007812h-41.988281c-4.144531 0-7.5-3.355468-7.5-7.5 0-4.144531 3.355469-7.5 7.5-7.5h41.988281c4.144532 0 7.5 3.355469 7.5 7.5 0 4.144532-3.355468 7.5-7.5 7.5zm0 0"/><path d="m116.070312 370.550781h-11.988281c-4.144531 0-7.5-3.355469-7.5-7.5 0-4.140625 3.355469-7.5 7.5-7.5h11.988281c4.140626 0 7.5 3.359375 7.5 7.5 0 4.144531-3.355468 7.5-7.5 7.5zm0 0"/><path d="m116.070312 424.097656h-11.988281c-4.144531 0-7.5-3.359375-7.5-7.5 0-4.144531 3.355469-7.5 7.5-7.5h11.988281c4.140626 0 7.5 3.355469 7.5 7.5 0 4.140625-3.355468 7.5-7.5 7.5zm0 0"/></g></svg>