<svg height="512pt" viewBox="0 -11 512 512" width="512pt" xmlns="http://www.w3.org/2000/svg"><path d="m245 0c-38.554688 0-75.023438 8.917969-107.476562 24.785156l-71.902344 387.066406c29.597656 31.808594 67.554687 55.726563 110.371094 68.28125l127.449218 2.835938c107.089844-26.210938 186.558594-122.804688 186.558594-237.96875 0-135.308594-109.691406-245-245-245zm0 0" fill="#c1d629"/><path d="m245 490c21.460938 0 42.273438-2.769531 62.109375-7.949219-1.5-3.210937-2.503906-6.851562-2.953125-11.484375l-4.164062-59.847656c-14.726563 0-106.902344 0-121.726563 0l-4.167969 59.847656c-.3125 3.25-.898437 6.015625-1.738281 8.484375 22.953125 7.113281 47.351563 10.949219 72.640625 10.949219zm0 0" fill="#b7dbf6"/><path d="m196.96875 445.050781h84.226562c9.429688 0 17.714844 5.171875 22.085938 12.902344l-3.289062-47.234375c-14.726563 0-106.902344 0-121.726563 0l-3.273437 47.039062c4.398437-7.621093 12.621093-12.707031 21.976562-12.707031zm0 0" fill="#97cbef"/><path d="m491.992188 24.238281h-353.363282c-16.199218 7.816407-31.398437 17.371094-45.371094 28.410157l-80.601562 270.199218c3.34375 9.976563 7.289062 19.679688 11.835938 29.039063h487.507812v-307.640625c0-11.007813-9.003906-20.007813-20.007812-20.007813zm0 0" fill="#122894"/><path d="m65.621094 145.296875-52.964844 177.550781c3.34375 9.976563 7.289062 19.675782 11.835938 29.039063h41.128906zm0 0" fill="#012481"/><path d="m66.453125 412.746094h425.539063c11.003906 0 20.007812-9.003906 20.007812-20.007813v-40.855469h-487.507812c10.882812 22.414063 25.085937 42.910157 41.960937 60.863282zm0 0" fill="#e8f3fc"/><path d="m65.621094 392.738281v-40.855469h-41.128906c10.882812 22.414063 25.085937 42.90625 41.960937 60.863282h19.175781c-11.003906 0-20.007812-9.003906-20.007812-20.007813zm0 0" fill="#b7dbf6"/><path d="m483.976562 51.625h-198.625c-.351562 0-.632812.699219-.632812 1.558594v269.703125c0 .863281.28125 1.558593.632812 1.558593h198.625c.351563 0 .636719-.695312.636719-1.558593v-269.703125c-.003906-.859375-.285156-1.558594-.636719-1.558594zm0 0" fill="#e8f3fc"/><path d="m339.875 51.625h-54.984375c-.09375 0-.175781.699219-.175781 1.558594v269.703125c0 .863281.082031 1.558593.175781 1.558593h54.984375c.097656 0 .175781-.695312.175781-1.558593v-269.703125c0-.859375-.078125-1.558594-.175781-1.558594zm0 0" fill="#b7dbf6"/><path d="m252.824219 382.316406c0 7.5625-6.132813 13.695313-13.695313 13.695313s-13.695312-6.132813-13.695312-13.695313 6.132812-13.695312 13.695312-13.695312 13.695313 6.132812 13.695313 13.695312zm0 0" fill="#b7dbf6"/><path d="m0 245c0 .960938.0234375 1.917969.0351562 2.878906 5.9882818-4.914062 15.2382818-10.921875 29.4687498-17.355468 34.796875-15.726563 50.675782-41.6875 57.820313-60.085938 3.324219-8.550781 13.550781-12.019531 21.367187-7.21875l.078125.050781c4.65625 2.863281 10.519531 2.898438 15.214844.097657l.222656-.132813c7.808594-4.660156 17.882813-1.140625 21.1875 7.332031 4.441407 11.386719 12.230469 25.648438 25.757813 38.582032 8.773437-4.964844 16.0625-10.695313 22.027344-16.527344 4.335937-4.242188 11.277343-4.203125 15.617187.039062 7.734375 7.558594 17.667969 14.957032 30.226563 20.703125v-161.738281h-144.460938c-57.546875 44.832031-94.5625 114.777344-94.5625 193.375zm0 0" fill="#f4b500"/><path d="m239.023438 208.335938c-12.578126-5.757813-22.519532-13.167969-30.261719-20.738282-4.316407-4.226562-11.269531-4.226562-15.585938 0-6.359375 6.21875-14.199219 12.332032-23.765625 17.507813 8.695313 8.550781 19.78125 16.589843 33.917969 22.980469 19.914063 9.003906 30.328125 17.195312 35.695313 22.832031zm0 0" fill="#a54f2d"/><path d="m199.800781 220.058594c0-11.414063 9.253907-20.667969 20.667969-20.667969 1.046875 0 2.066406.105469 3.070312.253906-5.632812-3.804687-10.535156-7.902343-14.777343-12.050781-4.316407-4.222656-11.265625-4.222656-15.585938 0-6.355469 6.21875-14.195312 12.335938-23.765625 17.511719 8.21875 8.078125 18.570313 15.699219 31.617188 21.910156-.78125-2.175781-1.226563-4.511719-1.226563-6.957031zm0 0" fill="#914429"/><path d="m65.621094 78.160156c-40.707032 43.742188-65.621094 102.375-65.621094 166.839844 0 .960938.0234375 1.917969.0351562 2.878906 5.9882818-4.914062 15.2382818-10.921875 29.4687498-17.355468 15.492188-7 27.226563-16.03125 36.117188-25.519532zm0 0" fill="#f29b00"/><path d="m203.167969 225.496094c-34.75-15.707032-50.628907-41.617188-57.792969-60.011719-3.292969-8.457031-13.378906-11.933594-21.167969-7.28125l-.238281.144531c-4.691406 2.800782-10.550781 2.757813-15.199219-.109375l-.078125-.046875c-7.824218-4.824218-18.046875-1.316406-21.378906 7.25-7.152344 18.398438-23.03125 44.332032-57.808594 60.054688-14.238281 6.433594-23.488281 12.445312-29.4765622 17.359375-.0078126.71875-.0273438 1.429687-.0273438 2.144531 0 8.96875.496094 17.820312 1.433594 26.535156 20.140625-12.183594 63.480468-28.859375 114.902344 8.734375 59.597656-43.570312 108.34375-14.25 122.6875-3.496093v-27.871094c-4.875-5.496094-15.035157-13.996094-35.855469-23.40625zm0 0" fill="#b2603b"/><path d="m78.8125 241.875c20.125-19.410156 29.324219-51.425781 33.472656-74.15625.546875-3.011719 1.425782-5.507812 2.5-7.402344-2.097656-.242187-4.152344-.929687-6.015625-2.078125l-.078125-.046875c-7.824218-4.824218-18.046875-1.3125-21.378906 7.25-7.152344 18.398438-23.03125 44.335938-57.808594 60.054688-14.238281 6.4375-23.488281 12.445312-29.4765622 17.363281-.0078126.714844-.0273438 1.425781-.0273438 2.140625 0 8.96875.496094 17.820312 1.433594 26.539062 12.945312-7.835937 35.480468-17.519531 63.582031-13.457031 3.328125-4.910156 7.796875-10.417969 13.796875-16.207031zm0 0" fill="#a54f2d"/><path d="m199.636719 121.328125c0 12.601563-10.214844 22.820313-22.820313 22.820313-12.601562 0-22.816406-10.21875-22.816406-22.820313s10.214844-22.820313 22.816406-22.820313c12.605469 0 22.820313 10.21875 22.820313 22.820313zm0 0" fill="#fce275"/><path d="m185.511719 126.761719c-7.804688 0-14.128907-6.324219-14.128907-14.125 0-6.484375 4.375-11.9375 10.328126-13.597657-1.574219-.34375-3.210938-.53125-4.890626-.53125-12.605468 0-22.820312 10.214844-22.820312 22.820313 0 12.601563 10.214844 22.816406 22.820312 22.816406 12.601563 0 22.816407-10.214843 22.816407-22.816406 0-1.679687-.1875-3.316406-.53125-4.894531-1.660157 5.957031-7.113281 10.328125-13.59375 10.328125zm0 0" fill="#f9ce00"/><path d="m239.023438 274.71875c-14.34375-10.75-63.089844-40.074219-122.6875 3.496094 59.597656 43.570312 108.34375 14.25 122.6875 3.496094zm0 0" fill="#05b8e2"/><path d="m239.023438 274.71875c-14.34375-10.75-63.089844-40.074219-122.6875 3.496094 59.597656 43.570312 108.34375 14.25 122.6875 3.496094zm0 0" fill="#05b8e2"/><path d="m116.335938 278.214844c-51.601563-37.726563-95.066407-20.804688-115.109376-8.605469 1.894532 19.003906 5.964844 37.367187 11.953126 54.839844h225.84375v-42.738281c-14.34375 10.753906-63.089844 40.074218-122.6875-3.496094zm0 0" fill="#06daf7"/><path d="m65.621094 256.117188c-28.539063-4.3125-51.394532 5.578124-64.394532 13.492187 1.894532 19.003906 5.964844 37.363281 11.953126 54.835937h52.441406zm0 0" fill="#05b8e2"/><path d="m461.96875 71.855469h-146.886719c-2.003906 0-3.625 1.625-3.625 3.628906v105.929687c0 2 1.621094 3.625 3.625 3.625h146.886719c2.003906 0 3.625-1.625 3.625-3.625v-105.929687c.003906-2.003906-1.621094-3.628906-3.625-3.628906zm0 0" fill="#b7dbf6"/><path d="m340.050781 71.855469h-24.96875c-2 0-3.625 1.625-3.625 3.628906v105.929687c0 2 1.625 3.625 3.625 3.625h24.96875zm0 0" fill="#97cbef"/><path d="m465.597656 98.507812v-23.027343c0-2-1.625-3.621094-3.625-3.625h-146.890625c-2.003906.003906-3.625 1.625-3.625 3.628906v23.023437zm0 0" fill="#97cbef"/><path d="m340.050781 71.855469h-24.96875c-2.003906.003906-3.625 1.625-3.625 3.628906v23.023437h28.59375zm0 0" fill="#60b4e2"/><path d="m454.535156 223.054688h-79.558594c-2.65625 0-4.8125-2.152344-4.8125-4.808594s2.152344-4.8125 4.8125-4.8125h79.558594c2.65625 0 4.808594 2.15625 4.808594 4.8125s-2.152344 4.808594-4.808594 4.808594zm0 0" fill="#b7dbf6"/><path d="m374.976562 226.902344h-51.292968c-4.78125 0-8.65625-3.875-8.65625-8.65625s3.875-8.660156 8.65625-8.660156h51.292968c4.78125 0 8.65625 3.878906 8.65625 8.660156s-3.875 8.65625-8.65625 8.65625zm0 0" fill="#ef4a8a"/><path d="m387.640625 218.246094c0 6.996094-5.671875 12.664062-12.664063 12.664062-6.996093 0-12.667968-5.667968-12.667968-12.664062s5.671875-12.667969 12.667968-12.667969c6.992188 0 12.664063 5.671875 12.664063 12.667969zm0 0" fill="#e5387f"/><path d="m454.535156 258.878906h-32.078125c-2.65625 0-4.8125-2.152344-4.8125-4.8125 0-2.65625 2.15625-4.808594 4.8125-4.808594h32.078125c2.65625 0 4.808594 2.152344 4.808594 4.808594 0 2.660156-2.152344 4.8125-4.808594 4.8125zm0 0" fill="#b7dbf6"/><path d="m422.453125 262.726562h-98.769531c-4.78125 0-8.65625-3.875-8.65625-8.660156 0-4.78125 3.875-8.65625 8.65625-8.65625h98.769531c4.785156 0 8.660156 3.875 8.660156 8.65625 0 4.785156-3.875 8.660156-8.660156 8.660156zm0 0" fill="#f9ce00"/><path d="m435.121094 254.066406c0 6.996094-5.667969 12.667969-12.664063 12.667969-6.996093 0-12.667969-5.671875-12.667969-12.667969 0-6.992187 5.671876-12.664062 12.667969-12.664062 6.996094 0 12.664063 5.671875 12.664063 12.664062zm0 0" fill="#f4b500"/><path d="m454.535156 294.699219h-88.21875c-2.65625 0-4.808594-2.152344-4.808594-4.808594s2.152344-4.808594 4.808594-4.808594h88.21875c2.65625 0 4.808594 2.152344 4.808594 4.808594s-2.152344 4.808594-4.808594 4.808594zm0 0" fill="#b7dbf6"/><path d="m366.316406 298.550781h-42.632812c-4.78125 0-8.65625-3.878906-8.65625-8.660156s3.875-8.65625 8.65625-8.65625h42.632812c4.78125 0 8.660156 3.875 8.660156 8.65625s-3.878906 8.660156-8.660156 8.660156zm0 0" fill="#c1d629"/><path d="m334.484375 218.246094c0-4.78125 3.875-8.660156 8.65625-8.660156h-19.453125c-4.785156 0-8.660156 3.878906-8.660156 8.660156s3.875 8.65625 8.660156 8.65625h19.453125c-4.78125 0-8.65625-3.875-8.65625-8.65625zm0 0" fill="#e5387f"/><path d="m334.484375 254.066406c0-4.78125 3.875-8.65625 8.65625-8.65625h-19.453125c-4.785156 0-8.660156 3.875-8.660156 8.65625 0 4.785156 3.875 8.660156 8.660156 8.660156h19.453125c-4.78125 0-8.65625-3.875-8.65625-8.660156zm0 0" fill="#f4b500"/><path d="m334.484375 289.890625c0-4.78125 3.875-8.65625 8.65625-8.65625h-19.453125c-4.785156 0-8.660156 3.875-8.660156 8.65625s3.875 8.660156 8.660156 8.660156h19.453125c-4.78125 0-8.65625-3.878906-8.65625-8.660156zm0 0" fill="#82b218"/><path d="m378.984375 289.890625c0 6.996094-5.671875 12.667969-12.667969 12.667969s-12.664062-5.671875-12.664062-12.667969 5.667968-12.664063 12.664062-12.664063 12.667969 5.667969 12.667969 12.664063zm0 0" fill="#82b218"/><path d="m238.011719 90.601562h50.933593v38.972657h-50.933593zm0 0" fill="#05b8e2"/><path d="m238.011719 129.574219h50.933593v38.976562h-50.933593zm0 0" fill="#06daf7"/><path d="m238.011719 168.550781h50.933593v38.972657h-50.933593zm0 0" fill="#e5387f"/><path d="m238.011719 207.523438h50.933593v38.976562h-50.933593zm0 0" fill="#ef4a8a"/><path d="m238.011719 246.496094h50.933593v38.976562h-50.933593zm0 0" fill="#f4b500"/><path d="m238.011719 51.625h50.933593v38.976562h-50.933593zm0 0" fill="#c1d629"/><path d="m238.011719 324.445312h50.933593v-38.972656h-50.933593zm0 0" fill="#f9ce00"/><path d="m238.011719 129.574219h.484375c-.164063 0-.320313-.019531-.484375-.023438zm0 0" fill="#07a3d3"/><path d="m238.496094 90.601562h-.484375v.023438c.164062-.003906.320312-.023438.484375-.023438zm0 0" fill="#07a3d3"/><path d="m250.457031 90.601562c10.761719 0 19.488281 8.722657 19.488281 19.484376 0 10.765624-8.726562 19.488281-19.488281 19.488281h38.488281v-38.972657zm0 0" fill="#07a3d3"/><path d="m238.496094 129.574219h-.484375v.023437c.164062-.003906.324219-.023437.484375-.023437zm0 0" fill="#05b8e2"/><path d="m238.011719 168.550781h.484375c-.164063 0-.320313-.023437-.484375-.027343zm0 0" fill="#05b8e2"/><path d="m250.457031 129.574219c10.761719 0 19.488281 8.726562 19.488281 19.488281s-8.726562 19.484375-19.488281 19.484375h38.488281v-38.972656zm0 0" fill="#05b8e2"/><path d="m238.496094 168.550781h-.484375v.023438c.164062-.003907.320312-.023438.484375-.023438zm0 0" fill="#d32976"/><path d="m250.457031 168.550781c10.761719 0 19.488281 8.722657 19.488281 19.484375 0 10.765625-8.726562 19.488282-19.488281 19.488282h38.488281v-38.976563h-38.488281zm0 0" fill="#d32976"/><path d="m238.011719 207.523438h.484375c-.164063 0-.320313-.019532-.484375-.023438zm0 0" fill="#d32976"/><path d="m238.496094 207.523438h-.484375v.023437c.164062-.003906.320312-.023437.484375-.023437zm0 0" fill="#e5387f"/><path d="m250.457031 207.523438c10.761719 0 19.488281 8.726562 19.488281 19.488281s-8.726562 19.484375-19.488281 19.484375h38.488281v-38.972656zm0 0" fill="#e5387f"/><path d="m238.011719 246.496094h.484375c-.164063 0-.320313-.019532-.484375-.023438zm0 0" fill="#e5387f"/><g fill="#f29b00"><path d="m238.011719 285.472656h.484375c-.164063 0-.320313-.019531-.484375-.023437zm0 0"/><path d="m238.496094 246.496094h-.484375v.027344c.164062-.003907.320312-.027344.484375-.027344zm0 0"/><path d="m250.457031 246.496094c10.761719 0 19.488281 8.726562 19.488281 19.488281s-8.726562 19.488281-19.488281 19.488281h38.488281v-38.976562zm0 0"/></g><path d="m238.496094 51.625h-.484375v.023438c.164062-.003907.320312-.023438.484375-.023438zm0 0" fill="#82b218"/><path d="m238.011719 90.601562h.484375c-.160156 0-.320313-.023437-.484375-.027343zm0 0" fill="#82b218"/><path d="m250.457031 51.625c10.761719 0 19.488281 8.726562 19.488281 19.488281s-8.726562 19.484375-19.488281 19.484375h38.488281v-38.972656zm0 0" fill="#82b218"/><path d="m238.496094 285.472656h-.484375v.023438c.164062-.003906.320312-.023438.484375-.023438zm0 0" fill="#f4b500"/><path d="m250.457031 285.472656c10.761719 0 19.488281 8.726563 19.488281 19.488282 0 10.761718-8.726562 19.484374-19.488281 19.484374h38.488281v-38.972656zm0 0" fill="#f4b500"/><path d="m177.679688 277.714844c0-9.921875 6.117187-18.410156 14.78125-21.921875-21.074219-2.660157-47.332032 1.371093-76.125 22.421875 29.726562 21.730468 56.75 25.328125 78.152343 22.140625-9.722656-2.933594-16.808593-11.957031-16.808593-22.640625zm0 0" fill="#07a3d3"/></svg>