<svg id="Capa_1" enable-background="new 0 0 512 512" height="512" viewBox="0 0 512 512" width="512" xmlns="http://www.w3.org/2000/svg"><g><g><g><g><g><g><g><path d="m72.567 434.574c-44.906-46.121-72.567-109.117-72.567-178.574 0-141.385 114.615-256 256-256s256 114.615 256 256c0 69.457-27.661 132.453-72.567 178.574z" fill="#00c8c8"/></g></g></g></g></g></g><path d="m511.881 263.87-167.707-167.707-233.181 159.837 178.574 178.574h149.866c43.204-44.373 70.445-104.366 72.448-170.704z" fill="#00a0aa"/><g><g><path d="m151.365 263.351h-22.281c-14.337 0-25.96-11.623-25.96-25.96v-36.606c0-14.337 11.623-25.96 25.96-25.96h22.281z" fill="#414952"/></g><g><path d="m382.916 263.351h-22.281v-88.526h22.281c14.337 0 25.96 11.623 25.96 25.96v36.606c0 14.337-11.623 25.96-25.96 25.96z" fill="#23272b"/></g></g><g><path d="m339.917 392.195-188.197 2.522-.772-89.508 105.052 21.719 105.052-21.719 24.801 46.914z" fill="#f24500"/></g><g><path d="m385.853 352.123-24.801-46.914-105.052 21.719-.356-.073v66.47l84.273-1.13z" fill="#d13400"/></g><g><g><path d="m292.317 326.752v-39.35h-72.634v39.35c0 13.064-8.396 24.649-20.811 28.717l-1.255.411c9.56 22.812 32.1 45.112 58.383 45.112s48.823-22.299 58.383-45.112l-1.254-.411c-12.416-4.067-20.812-15.652-20.812-28.717z" fill="#ffcdbe"/></g><g><path d="m313.128 355.469c-12.415-4.067-20.811-15.652-20.811-28.717v-39.35h-36.673v113.579c.119.001.237.01.356.01 26.283 0 48.823-22.299 58.383-45.112z" fill="#ffbeaa"/></g><g><path d="m256 413.046c-36.866 0-68.384-17.372-81.11-49.721l-34.616 11.34c-22.038 7.219-41.107 21.451-54.299 40.523l145.463 95.649c8.084.769 16.277 1.163 24.562 1.163.571 0 1.138-.017 1.709-.02v-98.959c-.57.008-1.137.025-1.709.025z" fill="#dce1eb"/></g><g><path d="m371.726 374.665-34.616-11.34c-12.725 32.349-44.244 49.721-81.11 49.721-.119 0-.237-.005-.356-.005v98.955c.119 0 .237.004.356.004 8.285 0 16.478-.394 24.562-1.163l145.463-95.649c-13.192-19.072-32.262-33.304-54.299-40.523z" fill="#bec3d2"/></g><g><path d="m256 418.571c36.866 0 68.384-22.897 81.11-55.246l-22.727-7.445c-9.56 22.812-32.1 38.837-58.383 38.837s-48.823-16.025-58.383-38.837l-22.727 7.445c12.726 32.349 44.244 55.246 81.11 55.246z" fill="#fff"/></g><g><path d="m314.383 355.88c-9.56 22.812-32.1 38.837-58.383 38.837-.119 0-.237-.006-.356-.007v23.854c.119 0 .237.007.356.007 36.866 0 68.384-22.897 81.11-55.246z" fill="#e9edf5"/></g></g><g><g><path d="m256 332.337c-51.82 0-93.828-42.008-93.828-93.828v-57.966c0-51.82 42.008-93.828 93.828-93.828 51.82 0 93.828 42.008 93.828 93.828v57.966c0 51.819-42.008 93.828-93.828 93.828z" fill="#ffdecf"/></g></g><g><g><path d="m256 86.716c-.119 0-.237.004-.356.004v245.612c.119 0 .237.005.356.005 51.82 0 93.828-42.008 93.828-93.828v-57.966c0-51.819-42.008-93.827-93.828-93.827z" fill="#ffcdbe"/></g></g><g><path d="m70.458 432.381c41.346 43.48 97.817 72.443 160.979 78.456l-5.439-43.167-57.774-104.959-57.14 20.791c-19.299 7.022-33.913 23.084-39.086 42.959z" fill="#fe6a16"/></g><g><path d="m441.542 432.381c-41.346 43.48-97.817 72.443-160.98 78.456l5.439-43.167 57.774-104.959 57.14 20.791c19.299 7.022 33.913 23.084 39.086 42.959z" fill="#f24500"/></g><g><path d="m383.747 388.534-97.746 79.136 75.051-162.461 28.885 45.378c7.882 12.383 5.219 28.71-6.19 37.947z" fill="#fe6a16"/></g><g><path d="m128.253 388.534 97.746 79.136-75.051-162.461-28.885 45.378c-7.882 12.383-5.219 28.71 6.19 37.947z" fill="#ff9500"/></g><g><g><path d="m322.11 404.684h30v61.249h-30z" fill="#e9edf5"/></g><g><path d="m159.89 404.684h30v61.249h-30z" fill="#fff"/></g></g><g><path d="m179.953 117.988s58.208 76.452 175.058 78.19l-7.187-67.632-46.242-41.83-54.299-3.479-40.395 3.479z" fill="#ffce00"/></g><g><path d="m347.824 128.545-46.242-41.83-45.938-2.943v90.431c26.269 12.035 59.383 21.379 99.368 21.974z" fill="#fdba12"/></g><g><path d="m377.566 263.351h-30v-83.587c0-50.49-41.077-91.566-91.566-91.566s-91.566 41.076-91.566 91.566v83.587h-30v-83.587c0-67.032 54.535-121.566 121.566-121.566s121.566 54.534 121.566 121.566z" fill="#555a66"/></g><g><path d="m256 58.198c-.119 0-.237.004-.356.005v30c.119 0 .237-.005.356-.005 50.49 0 91.566 41.076 91.566 91.566v83.587h30v-83.587c0-67.032-54.534-121.566-121.566-121.566z" fill="#333940"/></g></g></svg>