<?xml version="1.0"?>
<svg xmlns="http://www.w3.org/2000/svg" xmlns:xlink="http://www.w3.org/1999/xlink" xmlns:svgjs="http://svgjs.com/svgjs" version="1.1" width="512" height="512" x="0" y="0" viewBox="0 0 128 128" style="enable-background:new 0 0 512 512" xml:space="preserve" class=""><g><path xmlns="http://www.w3.org/2000/svg" id="Sign_In_1_" d="m94.828 66.828-40 40c-.781.781-1.805 1.172-2.828 1.172s-2.047-.391-2.828-1.172c-1.563-1.563-1.563-4.094 0-5.656l33.172-33.172h-78.344c-2.209 0-4-1.791-4-4s1.791-4 4-4h78.344l-33.172-33.172c-1.563-1.563-1.563-4.094 0-5.656s4.094-1.563 5.656 0l40 40c1.563 1.562 1.563 4.094 0 5.656zm33.172 33.172v-72c0-13.234-10.766-24-24-24h-28c-2.209 0-4 1.791-4 4s1.791 4 4 4h28c8.822 0 16 7.178 16 16v72c0 8.822-7.178 16-16 16h-28c-2.209 0-4 1.791-4 4s1.791 4 4 4h28c13.234 0 24-10.766 24-24z" fill="#d1dce5" data-original="#000000" class=""/></g></svg>
