<?xml version="1.0"?>
<svg xmlns="http://www.w3.org/2000/svg" xmlns:xlink="http://www.w3.org/1999/xlink" xmlns:svgjs="http://svgjs.com/svgjs" version="1.1" width="512" height="512" x="0" y="0" viewBox="0 0 24 24" style="enable-background:new 0 0 512 512" xml:space="preserve" class=""><g><g xmlns="http://www.w3.org/2000/svg" id="_x33_"><path d="m18 2c2.206 0 4 1.794 4 4v12c0 2.206-1.794 4-4 4h-12c-2.206 0-4-1.794-4-4v-12c0-2.206 1.794-4 4-4zm0-2h-12c-3.314 0-6 2.686-6 6v12c0 3.314 2.686 6 6 6h12c3.314 0 6-2.686 6-6v-12c0-3.314-2.686-6-6-6z" fill="#d1dce5" data-original="#000000" class=""/></g><g xmlns="http://www.w3.org/2000/svg" id="_x32_"><path d="m12 18c-.552 0-1-.447-1-1v-10c0-.552.448-1 1-1s1 .448 1 1v10c0 .553-.448 1-1 1z" fill="#d1dce5" data-original="#000000" class=""/></g><g xmlns="http://www.w3.org/2000/svg" id="_x31_"><path d="m6 12c0-.552.447-1 1-1h10c.552 0 1 .448 1 1s-.448 1-1 1h-10c-.553 0-1-.448-1-1z" fill="#d1dce5" data-original="#000000" class=""/></g></g></svg>
